%TF.GenerationSoftware,KiCad,Pcbnew,6.0.11-2627ca5db0~126~ubuntu20.04.1*%
%TF.CreationDate,2023-03-09T15:20:37+06:00*%
%TF.ProjectId,Router_Modems,526f7574-6572-45f4-9d6f-64656d732e6b,rev?*%
%TF.SameCoordinates,PX3975790PY2486960*%
%TF.FileFunction,Soldermask,Bot*%
%TF.FilePolarity,Negative*%
%FSLAX46Y46*%
G04 Gerber Fmt 4.6, Leading zero omitted, Abs format (unit mm)*
G04 Created by KiCad (PCBNEW 6.0.11-2627ca5db0~126~ubuntu20.04.1) date 2023-03-09 15:20:37*
%MOMM*%
%LPD*%
G01*
G04 APERTURE LIST*
G04 Aperture macros list*
%AMRoundRect*
0 Rectangle with rounded corners*
0 $1 Rounding radius*
0 $2 $3 $4 $5 $6 $7 $8 $9 X,Y pos of 4 corners*
0 Add a 4 corners polygon primitive as box body*
4,1,4,$2,$3,$4,$5,$6,$7,$8,$9,$2,$3,0*
0 Add four circle primitives for the rounded corners*
1,1,$1+$1,$2,$3*
1,1,$1+$1,$4,$5*
1,1,$1+$1,$6,$7*
1,1,$1+$1,$8,$9*
0 Add four rect primitives between the rounded corners*
20,1,$1+$1,$2,$3,$4,$5,0*
20,1,$1+$1,$4,$5,$6,$7,0*
20,1,$1+$1,$6,$7,$8,$9,0*
20,1,$1+$1,$8,$9,$2,$3,0*%
G04 Aperture macros list end*
%ADD10R,1.800000X1.800000*%
%ADD11C,1.800000*%
%ADD12C,7.000000*%
%ADD13RoundRect,0.250000X0.725000X-0.600000X0.725000X0.600000X-0.725000X0.600000X-0.725000X-0.600000X0*%
%ADD14O,1.950000X1.700000*%
%ADD15RoundRect,0.250000X0.750000X-0.600000X0.750000X0.600000X-0.750000X0.600000X-0.750000X-0.600000X0*%
%ADD16O,2.000000X1.700000*%
%ADD17RoundRect,0.225000X0.225000X0.250000X-0.225000X0.250000X-0.225000X-0.250000X0.225000X-0.250000X0*%
%ADD18RoundRect,0.250000X0.925000X-0.412500X0.925000X0.412500X-0.925000X0.412500X-0.925000X-0.412500X0*%
%ADD19RoundRect,0.200000X0.200000X0.275000X-0.200000X0.275000X-0.200000X-0.275000X0.200000X-0.275000X0*%
%ADD20RoundRect,0.250000X-0.325000X-0.650000X0.325000X-0.650000X0.325000X0.650000X-0.325000X0.650000X0*%
%ADD21C,6.600000*%
%ADD22C,1.600000*%
%ADD23C,1.100000*%
%ADD24R,1.550000X0.300000*%
%ADD25R,2.750000X1.200000*%
%ADD26RoundRect,0.200000X-0.200000X-0.275000X0.200000X-0.275000X0.200000X0.275000X-0.200000X0.275000X0*%
%ADD27RoundRect,0.225000X-0.225000X-0.250000X0.225000X-0.250000X0.225000X0.250000X-0.225000X0.250000X0*%
%ADD28RoundRect,0.250000X0.325000X0.650000X-0.325000X0.650000X-0.325000X-0.650000X0.325000X-0.650000X0*%
%ADD29RoundRect,0.250000X-0.650000X0.325000X-0.650000X-0.325000X0.650000X-0.325000X0.650000X0.325000X0*%
%ADD30R,2.500000X1.800000*%
%ADD31RoundRect,0.250000X0.650000X-0.325000X0.650000X0.325000X-0.650000X0.325000X-0.650000X-0.325000X0*%
%ADD32RoundRect,0.250000X0.412500X0.925000X-0.412500X0.925000X-0.412500X-0.925000X0.412500X-0.925000X0*%
%ADD33R,1.550000X0.600000*%
%ADD34R,2.600000X3.100000*%
%ADD35RoundRect,0.250000X-0.925000X0.412500X-0.925000X-0.412500X0.925000X-0.412500X0.925000X0.412500X0*%
%ADD36RoundRect,0.250000X-0.412500X-0.925000X0.412500X-0.925000X0.412500X0.925000X-0.412500X0.925000X0*%
G04 APERTURE END LIST*
D10*
%TO.C,D1*%
X52620000Y-89700000D03*
D11*
X55160000Y-89700000D03*
%TD*%
D12*
%TO.C,H1*%
X0Y0D03*
%TD*%
D10*
%TO.C,D3*%
X52595000Y-121800000D03*
D11*
X55135000Y-121800000D03*
%TD*%
D13*
%TO.C,X12*%
X53425000Y-59100000D03*
D14*
X53425000Y-56600000D03*
X53425000Y-54100000D03*
X53425000Y-51600000D03*
%TD*%
D13*
%TO.C,X13*%
X53425000Y-27000000D03*
D14*
X53425000Y-24500000D03*
X53425000Y-22000000D03*
X53425000Y-19500000D03*
%TD*%
D13*
%TO.C,X9*%
X53475000Y-135450000D03*
D14*
X53475000Y-132950000D03*
X53475000Y-130450000D03*
X53475000Y-127950000D03*
%TD*%
D10*
%TO.C,D5*%
X52770000Y-45500000D03*
D11*
X55310000Y-45500000D03*
%TD*%
D12*
%TO.C,H5*%
X45000000Y-140000000D03*
%TD*%
%TO.C,H4*%
X45000000Y0D03*
%TD*%
%TO.C,H3*%
X0Y-140000000D03*
%TD*%
%TO.C,H2*%
X0Y-70000000D03*
%TD*%
D15*
%TO.C,X2*%
X53525000Y-81675000D03*
D16*
X53525000Y-79175000D03*
%TD*%
D10*
%TO.C,D6*%
X52625000Y-13250000D03*
D11*
X55165000Y-13250000D03*
%TD*%
D13*
%TO.C,X8*%
X53475000Y-103200000D03*
D14*
X53475000Y-100700000D03*
X53475000Y-98200000D03*
X53475000Y-95700000D03*
%TD*%
D17*
%TO.C,C21*%
X45050000Y-65950000D03*
X43500000Y-65950000D03*
%TD*%
D18*
%TO.C,C24*%
X52550000Y-67637500D03*
X52550000Y-64562500D03*
%TD*%
D19*
%TO.C,R2*%
X25550000Y-75490000D03*
X23900000Y-75490000D03*
%TD*%
D20*
%TO.C,C34*%
X41725000Y-30100000D03*
X44675000Y-30100000D03*
%TD*%
D21*
%TO.C,N2*%
X3612500Y-124200000D03*
%TD*%
D22*
%TO.C,X5*%
X43862500Y-114200000D03*
D23*
X43862500Y-134200000D03*
D24*
X49137500Y-133450000D03*
X41587500Y-133200000D03*
X49137500Y-132950000D03*
X41587500Y-132700000D03*
X49137500Y-132450000D03*
X41587500Y-132200000D03*
X49137500Y-131950000D03*
X41587500Y-131700000D03*
X49137500Y-131450000D03*
X41587500Y-131200000D03*
X49137500Y-130950000D03*
X41587500Y-128700000D03*
X49137500Y-128450000D03*
X41587500Y-128200000D03*
X49137500Y-127950000D03*
X41587500Y-127700000D03*
X49137500Y-127450000D03*
X41587500Y-127200000D03*
X49137500Y-126950000D03*
X41587500Y-126700000D03*
X49137500Y-126450000D03*
X41587500Y-126200000D03*
X49137500Y-125950000D03*
X41587500Y-125700000D03*
X49137500Y-125450000D03*
X41587500Y-125200000D03*
X49137500Y-124950000D03*
X41587500Y-124700000D03*
X49137500Y-124450000D03*
X41587500Y-124200000D03*
X49137500Y-123950000D03*
X41587500Y-123700000D03*
X49137500Y-123450000D03*
X41587500Y-123200000D03*
X49137500Y-122950000D03*
X41587500Y-122700000D03*
X49137500Y-122450000D03*
X41587500Y-122200000D03*
X49137500Y-121950000D03*
X41587500Y-121700000D03*
X49137500Y-121450000D03*
X41587500Y-121200000D03*
X49137500Y-120950000D03*
X41587500Y-120700000D03*
X49137500Y-120450000D03*
X41587500Y-120200000D03*
X49137500Y-119950000D03*
X41587500Y-119700000D03*
X49137500Y-119450000D03*
X41587500Y-119200000D03*
X49137500Y-118950000D03*
X41587500Y-118700000D03*
X49137500Y-118450000D03*
X41587500Y-118200000D03*
X49137500Y-117950000D03*
X41587500Y-117700000D03*
X49137500Y-117450000D03*
X41587500Y-117200000D03*
X49137500Y-116950000D03*
X41587500Y-116700000D03*
X49137500Y-116450000D03*
X41587500Y-116200000D03*
X49137500Y-115950000D03*
X41587500Y-115700000D03*
X49137500Y-115450000D03*
X41587500Y-115200000D03*
X49137500Y-114950000D03*
D25*
X48362500Y-134550000D03*
X48362500Y-113850000D03*
%TD*%
D26*
%TO.C,R6*%
X17750000Y-75500000D03*
X19400000Y-75500000D03*
%TD*%
D27*
%TO.C,C28*%
X41617858Y-60100000D03*
X43167858Y-60100000D03*
%TD*%
D17*
%TO.C,C10*%
X21675000Y-64350000D03*
X20125000Y-64350000D03*
%TD*%
D28*
%TO.C,C2*%
X39525000Y-142450000D03*
X36575000Y-142450000D03*
%TD*%
D27*
%TO.C,C16*%
X41625000Y-111800000D03*
X43175000Y-111800000D03*
%TD*%
D19*
%TO.C,R11*%
X56400000Y-47650000D03*
X54750000Y-47650000D03*
%TD*%
D17*
%TO.C,C8*%
X15550000Y-72300000D03*
X14000000Y-72300000D03*
%TD*%
D29*
%TO.C,C19*%
X32550000Y-72100000D03*
X32550000Y-75050000D03*
%TD*%
D26*
%TO.C,R9*%
X34800000Y-64350000D03*
X36450000Y-64350000D03*
%TD*%
%TO.C,R8*%
X51425000Y-123950000D03*
X53075000Y-123950000D03*
%TD*%
D17*
%TO.C,C32*%
X39500000Y350000D03*
X37950000Y350000D03*
%TD*%
D30*
%TO.C,D2*%
X20925000Y-67015000D03*
X24925000Y-67015000D03*
%TD*%
D31*
%TO.C,C4*%
X30175000Y-67400000D03*
X30175000Y-64450000D03*
%TD*%
D27*
%TO.C,C9*%
X15575000Y-73900000D03*
X17125000Y-73900000D03*
%TD*%
D19*
%TO.C,R12*%
X42600000Y-64350000D03*
X40950000Y-64350000D03*
%TD*%
D20*
%TO.C,C25*%
X41675000Y-33500000D03*
X44625000Y-33500000D03*
%TD*%
D26*
%TO.C,R16*%
X51550000Y-15550000D03*
X53200000Y-15550000D03*
%TD*%
D27*
%TO.C,C20*%
X45050000Y-67550000D03*
X46600000Y-67550000D03*
%TD*%
D21*
%TO.C,N3*%
X3662500Y-47900000D03*
%TD*%
D20*
%TO.C,C17*%
X41675000Y-109800000D03*
X44625000Y-109800000D03*
%TD*%
D27*
%TO.C,C33*%
X41900000Y-28100000D03*
X43450000Y-28100000D03*
%TD*%
D18*
%TO.C,C26*%
X49100000Y-67637500D03*
X49100000Y-64562500D03*
%TD*%
D23*
%TO.C,X7*%
X43912500Y-57900000D03*
D22*
X43912500Y-37900000D03*
D24*
X49187500Y-57150000D03*
X41637500Y-56900000D03*
X49187500Y-56650000D03*
X41637500Y-56400000D03*
X49187500Y-56150000D03*
X41637500Y-55900000D03*
X49187500Y-55650000D03*
X41637500Y-55400000D03*
X49187500Y-55150000D03*
X41637500Y-54900000D03*
X49187500Y-54650000D03*
X41637500Y-52400000D03*
X49187500Y-52150000D03*
X41637500Y-51900000D03*
X49187500Y-51650000D03*
X41637500Y-51400000D03*
X49187500Y-51150000D03*
X41637500Y-50900000D03*
X49187500Y-50650000D03*
X41637500Y-50400000D03*
X49187500Y-50150000D03*
X41637500Y-49900000D03*
X49187500Y-49650000D03*
X41637500Y-49400000D03*
X49187500Y-49150000D03*
X41637500Y-48900000D03*
X49187500Y-48650000D03*
X41637500Y-48400000D03*
X49187500Y-48150000D03*
X41637500Y-47900000D03*
X49187500Y-47650000D03*
X41637500Y-47400000D03*
X49187500Y-47150000D03*
X41637500Y-46900000D03*
X49187500Y-46650000D03*
X41637500Y-46400000D03*
X49187500Y-46150000D03*
X41637500Y-45900000D03*
X49187500Y-45650000D03*
X41637500Y-45400000D03*
X49187500Y-45150000D03*
X41637500Y-44900000D03*
X49187500Y-44650000D03*
X41637500Y-44400000D03*
X49187500Y-44150000D03*
X41637500Y-43900000D03*
X49187500Y-43650000D03*
X41637500Y-43400000D03*
X49187500Y-43150000D03*
X41637500Y-42900000D03*
X49187500Y-42650000D03*
X41637500Y-42400000D03*
X49187500Y-42150000D03*
X41637500Y-41900000D03*
X49187500Y-41650000D03*
X41637500Y-41400000D03*
X49187500Y-41150000D03*
X41637500Y-40900000D03*
X49187500Y-40650000D03*
X41637500Y-40400000D03*
X49187500Y-40150000D03*
X41637500Y-39900000D03*
X49187500Y-39650000D03*
X41637500Y-39400000D03*
X49187500Y-39150000D03*
X41637500Y-38900000D03*
X49187500Y-38650000D03*
D25*
X48412500Y-58250000D03*
X48412500Y-37550000D03*
%TD*%
D31*
%TO.C,C6*%
X27775000Y-67400000D03*
X27775000Y-64450000D03*
%TD*%
D32*
%TO.C,C35*%
X8387500Y-65400000D03*
X5312500Y-65400000D03*
%TD*%
D26*
%TO.C,R10*%
X41950000Y-67550000D03*
X43600000Y-67550000D03*
%TD*%
D19*
%TO.C,R15*%
X56275000Y-15550000D03*
X54625000Y-15550000D03*
%TD*%
D28*
%TO.C,C31*%
X39500000Y2375000D03*
X36550000Y2375000D03*
%TD*%
D33*
%TO.C,U4*%
X34450000Y-69905000D03*
X34450000Y-68635000D03*
X34450000Y-67365000D03*
X34450000Y-66095000D03*
X39850000Y-66095000D03*
X39850000Y-67365000D03*
X39850000Y-68635000D03*
X39850000Y-69905000D03*
D34*
X37150000Y-68000000D03*
%TD*%
D19*
%TO.C,R13*%
X39525000Y-64350000D03*
X37875000Y-64350000D03*
%TD*%
D17*
%TO.C,C3*%
X39525000Y-140450000D03*
X37975000Y-140450000D03*
%TD*%
D27*
%TO.C,C22*%
X38725000Y-75450000D03*
X40275000Y-75450000D03*
%TD*%
D33*
%TO.C,U2*%
X25925000Y-69910000D03*
X25925000Y-71180000D03*
X25925000Y-72450000D03*
X25925000Y-73720000D03*
X20525000Y-73720000D03*
X20525000Y-72450000D03*
X20525000Y-71180000D03*
X20525000Y-69910000D03*
D34*
X23225000Y-71815000D03*
%TD*%
D30*
%TO.C,D4*%
X39450000Y-72775000D03*
X35450000Y-72775000D03*
%TD*%
D27*
%TO.C,C5*%
X46375000Y-79600000D03*
X47925000Y-79600000D03*
%TD*%
D21*
%TO.C,N1*%
X3662500Y-15800000D03*
%TD*%
D20*
%TO.C,C7*%
X46425000Y-77575000D03*
X49375000Y-77575000D03*
%TD*%
%TO.C,C13*%
X41725000Y-106300000D03*
X44675000Y-106300000D03*
%TD*%
D23*
%TO.C,X3*%
X43962500Y-101950000D03*
D22*
X43962500Y-81950000D03*
D24*
X49237500Y-101200000D03*
X41687500Y-100950000D03*
X49237500Y-100700000D03*
X41687500Y-100450000D03*
X49237500Y-100200000D03*
X41687500Y-99950000D03*
X49237500Y-99700000D03*
X41687500Y-99450000D03*
X49237500Y-99200000D03*
X41687500Y-98950000D03*
X49237500Y-98700000D03*
X41687500Y-96450000D03*
X49237500Y-96200000D03*
X41687500Y-95950000D03*
X49237500Y-95700000D03*
X41687500Y-95450000D03*
X49237500Y-95200000D03*
X41687500Y-94950000D03*
X49237500Y-94700000D03*
X41687500Y-94450000D03*
X49237500Y-94200000D03*
X41687500Y-93950000D03*
X49237500Y-93700000D03*
X41687500Y-93450000D03*
X49237500Y-93200000D03*
X41687500Y-92950000D03*
X49237500Y-92700000D03*
X41687500Y-92450000D03*
X49237500Y-92200000D03*
X41687500Y-91950000D03*
X49237500Y-91700000D03*
X41687500Y-91450000D03*
X49237500Y-91200000D03*
X41687500Y-90950000D03*
X49237500Y-90700000D03*
X41687500Y-90450000D03*
X49237500Y-90200000D03*
X41687500Y-89950000D03*
X49237500Y-89700000D03*
X41687500Y-89450000D03*
X49237500Y-89200000D03*
X41687500Y-88950000D03*
X49237500Y-88700000D03*
X41687500Y-88450000D03*
X49237500Y-88200000D03*
X41687500Y-87950000D03*
X49237500Y-87700000D03*
X41687500Y-87450000D03*
X49237500Y-87200000D03*
X41687500Y-86950000D03*
X49237500Y-86700000D03*
X41687500Y-86450000D03*
X49237500Y-86200000D03*
X41687500Y-85950000D03*
X49237500Y-85700000D03*
X41687500Y-85450000D03*
X49237500Y-85200000D03*
X41687500Y-84950000D03*
X49237500Y-84700000D03*
X41687500Y-84450000D03*
X49237500Y-84200000D03*
X41687500Y-83950000D03*
X49237500Y-83700000D03*
X41687500Y-83450000D03*
X49237500Y-83200000D03*
X41687500Y-82950000D03*
X49237500Y-82700000D03*
D25*
X48462500Y-102300000D03*
X48462500Y-81600000D03*
%TD*%
D19*
%TO.C,R5*%
X56125000Y-123950000D03*
X54475000Y-123950000D03*
%TD*%
%TO.C,R4*%
X18650000Y-72300000D03*
X17000000Y-72300000D03*
%TD*%
D26*
%TO.C,R7*%
X20825000Y-75490000D03*
X22475000Y-75490000D03*
%TD*%
D21*
%TO.C,N4*%
X3712500Y-91950000D03*
%TD*%
D35*
%TO.C,C12*%
X8075000Y-72262500D03*
X8075000Y-75337500D03*
%TD*%
D36*
%TO.C,C36*%
X52862500Y-74050000D03*
X55937500Y-74050000D03*
%TD*%
D26*
%TO.C,R14*%
X51625000Y-47650000D03*
X53275000Y-47650000D03*
%TD*%
D35*
%TO.C,C14*%
X11500000Y-72262500D03*
X11500000Y-75337500D03*
%TD*%
D19*
%TO.C,R1*%
X56300000Y-91850000D03*
X54650000Y-91850000D03*
%TD*%
D27*
%TO.C,C27*%
X41850000Y-35525000D03*
X43400000Y-35525000D03*
%TD*%
D29*
%TO.C,C18*%
X30125000Y-72100000D03*
X30125000Y-75050000D03*
%TD*%
D26*
%TO.C,R3*%
X51550000Y-91850000D03*
X53200000Y-91850000D03*
%TD*%
D20*
%TO.C,C29*%
X41625000Y-62100000D03*
X44575000Y-62100000D03*
%TD*%
D23*
%TO.C,X11*%
X43912500Y-25800000D03*
D22*
X43912500Y-5800000D03*
D24*
X49187500Y-25050000D03*
X41637500Y-24800000D03*
X49187500Y-24550000D03*
X41637500Y-24300000D03*
X49187500Y-24050000D03*
X41637500Y-23800000D03*
X49187500Y-23550000D03*
X41637500Y-23300000D03*
X49187500Y-23050000D03*
X41637500Y-22800000D03*
X49187500Y-22550000D03*
X41637500Y-20300000D03*
X49187500Y-20050000D03*
X41637500Y-19800000D03*
X49187500Y-19550000D03*
X41637500Y-19300000D03*
X49187500Y-19050000D03*
X41637500Y-18800000D03*
X49187500Y-18550000D03*
X41637500Y-18300000D03*
X49187500Y-18050000D03*
X41637500Y-17800000D03*
X49187500Y-17550000D03*
X41637500Y-17300000D03*
X49187500Y-17050000D03*
X41637500Y-16800000D03*
X49187500Y-16550000D03*
X41637500Y-16300000D03*
X49187500Y-16050000D03*
X41637500Y-15800000D03*
X49187500Y-15550000D03*
X41637500Y-15300000D03*
X49187500Y-15050000D03*
X41637500Y-14800000D03*
X49187500Y-14550000D03*
X41637500Y-14300000D03*
X49187500Y-14050000D03*
X41637500Y-13800000D03*
X49187500Y-13550000D03*
X41637500Y-13300000D03*
X49187500Y-13050000D03*
X41637500Y-12800000D03*
X49187500Y-12550000D03*
X41637500Y-12300000D03*
X49187500Y-12050000D03*
X41637500Y-11800000D03*
X49187500Y-11550000D03*
X41637500Y-11300000D03*
X49187500Y-11050000D03*
X41637500Y-10800000D03*
X49187500Y-10550000D03*
X41637500Y-10300000D03*
X49187500Y-10050000D03*
X41637500Y-9800000D03*
X49187500Y-9550000D03*
X41637500Y-9300000D03*
X49187500Y-9050000D03*
X41637500Y-8800000D03*
X49187500Y-8550000D03*
X41637500Y-8300000D03*
X49187500Y-8050000D03*
X41637500Y-7800000D03*
X49187500Y-7550000D03*
X41637500Y-7300000D03*
X49187500Y-7050000D03*
X41637500Y-6800000D03*
X49187500Y-6550000D03*
D25*
X48412500Y-26150000D03*
X48412500Y-5450000D03*
%TD*%
D27*
%TO.C,C15*%
X41725000Y-104286500D03*
X43275000Y-104286500D03*
%TD*%
M02*
