M48
; DRILL file {KiCad 6.0.11-2627ca5db0~126~ubuntu20.04.1} date Вт 14 фев 2023 13:04:36
; FORMAT={-:-/ absolute / metric / decimal}
; #@! TF.CreationDate,2023-02-14T13:04:36+06:00
; #@! TF.GenerationSoftware,Kicad,Pcbnew,6.0.11-2627ca5db0~126~ubuntu20.04.1
; #@! TF.FileFunction,Plated,1,2,PTH
FMAT,2
METRIC
; #@! TA.AperFunction,Plated,PTH,ViaDrill
T1C0.300
; #@! TA.AperFunction,Plated,PTH,ComponentDrill
T2C0.300
; #@! TA.AperFunction,Plated,PTH,ComponentDrill
T3C0.900
; #@! TA.AperFunction,Plated,PTH,ComponentDrill
T4C0.950
; #@! TA.AperFunction,Plated,PTH,ComponentDrill
T5C1.000
; #@! TA.AperFunction,Plated,PTH,ComponentDrill
T6C3.500
; #@! TA.AperFunction,Plated,PTH,ComponentDrill
T7C4.400
%
G90
G05
T1
X0.0Y-7.5
X0.0Y-22.5
X0.0Y-27.5
X0.0Y-32.5
X0.0Y-37.5
X0.0Y-100.0
X0.0Y-105.0
X0.0Y-110.0
X0.0Y-115.0
X6.2Y-68.45
X6.2Y-69.25
X6.2Y-70.05
X7.0Y-68.45
X7.0Y-69.25
X7.0Y-70.05
X7.0Y-78.0
X7.0Y-80.0
X7.5Y0.0
X7.5Y-5.0
X7.8Y-68.45
X7.8Y-69.25
X7.8Y-70.05
X8.6Y-68.45
X8.6Y-69.25
X8.6Y-70.05
X9.0Y-78.0
X9.0Y-80.0
X10.0Y-25.0
X10.0Y-30.0
X10.0Y-35.0
X10.0Y-102.5
X10.0Y-107.5
X10.0Y-112.5
X10.0Y-135.0
X10.0Y-140.0
X11.0Y-78.0
X11.0Y-80.0
X12.5Y0.0
X12.5Y-5.0
X13.0Y-78.0
X13.0Y-80.0
X15.0Y-25.0
X15.0Y-30.0
X15.0Y-35.0
X15.0Y-102.5
X15.0Y-107.5
X15.0Y-112.5
X15.0Y-135.0
X15.0Y-140.0
X16.1Y-68.45
X16.1Y-69.25
X16.1Y-70.05
X16.5Y-75.5
X16.9Y-68.45
X16.9Y-69.25
X16.9Y-70.05
X17.0Y-80.0
X17.5Y0.0
X17.5Y-5.0
X17.7Y-68.45
X17.7Y-69.25
X17.7Y-70.05
X20.0Y-25.0
X20.0Y-30.0
X20.0Y-35.0
X20.0Y-102.5
X20.0Y-107.5
X20.0Y-112.5
X20.0Y-135.0
X20.0Y-140.0
X21.0Y-80.0
X22.5Y0.0
X22.5Y-5.0
X23.0Y-64.35
X25.0Y-25.0
X25.0Y-30.0
X25.0Y-35.0
X25.0Y-80.0
X25.0Y-102.5
X25.0Y-107.5
X25.0Y-112.5
X25.0Y-135.0
X25.0Y-140.0
X27.5Y0.0
X27.5Y-5.0
X27.7Y-69.9
X29.0Y-69.0
X29.0Y-69.8
X29.0Y-70.6
X29.0Y-80.0
X29.8Y-69.0
X29.8Y-69.8
X29.8Y-70.6
X30.0Y-25.0
X30.0Y-30.0
X30.0Y-35.0
X30.0Y-102.5
X30.0Y-107.5
X30.0Y-112.5
X30.0Y-135.0
X30.0Y-140.0
X30.6Y-69.0
X30.6Y-69.8
X30.6Y-70.6
X31.4Y-69.0
X31.4Y-69.8
X31.4Y-70.6
X32.5Y0.0
X32.5Y-5.0
X32.7Y-69.9
X34.0Y3.0
X34.0Y2.0
X34.0Y1.0
X34.0Y0.0
X34.0Y-140.0
X34.0Y-141.0
X34.0Y-142.0
X34.0Y-143.0
X35.0Y3.0
X35.0Y2.0
X35.0Y1.0
X35.0Y0.0
X35.0Y-25.0
X35.0Y-30.0
X35.0Y-35.0
X35.0Y-102.5
X35.0Y-107.5
X35.0Y-112.5
X35.0Y-140.0
X35.0Y-141.0
X35.0Y-142.0
X35.0Y-143.0
X37.4Y-75.45
X39.1Y-124.15
X39.1Y-125.175
X39.1Y-126.2
X39.1Y-129.425
X39.15Y-91.925
X39.15Y-92.95
X39.2Y-93.95
X39.2Y-97.125
X39.3Y-15.75
X39.3Y-16.8
X39.325Y-47.9
X39.325Y-48.9
X39.325Y-49.9
X39.325Y-53.075
X39.35Y-17.8
X39.4Y-7.3
X39.4Y-21.0
X42.65Y-69.8
X42.65Y-70.6
X42.65Y-71.4
X43.45Y-69.8
X43.45Y-70.6
X43.45Y-71.4
X43.9Y-64.35
X44.0Y-8.0
X44.0Y-10.0
X44.0Y-12.0
X44.0Y-40.0
X44.0Y-43.0
X44.0Y-84.0
X44.0Y-87.0
X44.0Y-116.0
X44.0Y-119.0
X44.25Y-69.8
X44.25Y-70.6
X44.25Y-71.4
X45.0Y-20.0
X45.0Y-52.0
X45.0Y-96.0
X45.0Y-128.0
X47.0Y-8.0
X47.0Y-10.0
X47.0Y-12.0
X47.0Y-15.0
X47.0Y-18.0
X47.0Y-28.0
X47.0Y-30.0
X47.0Y-32.0
X47.0Y-34.0
X47.0Y-36.0
X47.0Y-40.0
X47.0Y-43.0
X47.0Y-46.0
X47.0Y-49.0
X47.0Y-60.5
X47.0Y-61.5
X47.0Y-62.5
X47.0Y-84.0
X47.0Y-87.0
X47.0Y-90.0
X47.0Y-93.0
X47.0Y-104.0
X47.0Y-106.0
X47.0Y-108.0
X47.0Y-110.0
X47.0Y-112.0
X47.0Y-116.0
X47.0Y-119.0
X47.0Y-122.0
X47.0Y-125.0
X48.0Y-60.5
X48.0Y-61.5
X48.0Y-62.5
X49.0Y-28.0
X49.0Y-30.0
X49.0Y-32.0
X49.0Y-34.0
X49.0Y-36.0
X49.0Y-60.5
X49.0Y-61.5
X49.0Y-62.5
X49.0Y-104.0
X49.0Y-106.0
X49.0Y-108.0
X49.0Y-110.0
X49.0Y-112.0
X51.8Y-69.75
X51.8Y-70.55
X51.8Y-71.35
X52.0Y-32.0
X52.0Y-35.0
X52.0Y-38.0
X52.0Y-41.0
X52.0Y-109.0
X52.0Y-112.0
X52.0Y-115.0
X52.0Y-118.0
X52.6Y-69.75
X52.6Y-70.55
X52.6Y-71.35
X53.0Y1.0
X53.0Y-2.0
X53.0Y-5.0
X53.4Y-69.75
X53.4Y-70.55
X53.4Y-71.35
X54.2Y-69.75
X54.2Y-70.55
X54.2Y-71.35
X55.0Y-32.0
X55.0Y-35.0
X55.0Y-38.0
X55.0Y-41.0
X55.0Y-109.0
X55.0Y-112.0
X55.0Y-115.0
X55.0Y-118.0
X56.0Y1.0
X56.0Y-2.0
X56.0Y-5.0
X56.5Y-64.0
X56.5Y-65.5
X56.5Y-67.0
X56.5Y-68.5
X56.5Y-70.0
X56.5Y-71.5
T2
X22.625Y-70.015
X22.625Y-71.215
X22.625Y-72.515
X22.625Y-73.615
X23.825Y-70.015
X23.825Y-71.215
X23.825Y-72.515
X23.825Y-73.615
X36.55Y-66.2
X36.55Y-67.3
X36.55Y-68.6
X36.55Y-69.8
X37.75Y-66.2
X37.75Y-67.3
X37.75Y-68.6
X37.75Y-69.8
T3
X52.595Y-121.8
X52.62Y-89.7
X52.625Y-13.25
X52.77Y-45.5
X55.135Y-121.8
X55.16Y-89.7
X55.165Y-13.25
X55.31Y-45.5
T4
X53.425Y-19.5
X53.425Y-22.0
X53.425Y-24.5
X53.425Y-27.0
X53.425Y-51.6
X53.425Y-54.1
X53.425Y-56.6
X53.425Y-59.1
X53.475Y-95.7
X53.475Y-98.2
X53.475Y-100.7
X53.475Y-103.2
X53.475Y-127.95
X53.475Y-130.45
X53.475Y-132.95
X53.475Y-135.45
T5
X53.525Y-79.175
X53.525Y-81.675
T6
X0.0Y0.0
X0.0Y-70.0
X0.0Y-140.0
X45.0Y0.0
X45.0Y-140.0
T7
X3.612Y-124.2
X3.662Y-15.8
X3.662Y-47.9
X3.712Y-91.95
T0
M30
