%TF.GenerationSoftware,KiCad,Pcbnew,6.0.11-2627ca5db0~126~ubuntu20.04.1*%
%TF.CreationDate,2023-03-09T11:24:52+06:00*%
%TF.ProjectId,Router_MCU,526f7574-6572-45f4-9d43-552e6b696361,rev?*%
%TF.SameCoordinates,PX6ef5c30PY494a350*%
%TF.FileFunction,Soldermask,Bot*%
%TF.FilePolarity,Negative*%
%FSLAX46Y46*%
G04 Gerber Fmt 4.6, Leading zero omitted, Abs format (unit mm)*
G04 Created by KiCad (PCBNEW 6.0.11-2627ca5db0~126~ubuntu20.04.1) date 2023-03-09 11:24:52*
%MOMM*%
%LPD*%
G01*
G04 APERTURE LIST*
G04 Aperture macros list*
%AMRoundRect*
0 Rectangle with rounded corners*
0 $1 Rounding radius*
0 $2 $3 $4 $5 $6 $7 $8 $9 X,Y pos of 4 corners*
0 Add a 4 corners polygon primitive as box body*
4,1,4,$2,$3,$4,$5,$6,$7,$8,$9,$2,$3,0*
0 Add four circle primitives for the rounded corners*
1,1,$1+$1,$2,$3*
1,1,$1+$1,$4,$5*
1,1,$1+$1,$6,$7*
1,1,$1+$1,$8,$9*
0 Add four rect primitives between the rounded corners*
20,1,$1+$1,$2,$3,$4,$5,0*
20,1,$1+$1,$4,$5,$6,$7,0*
20,1,$1+$1,$6,$7,$8,$9,0*
20,1,$1+$1,$8,$9,$2,$3,0*%
G04 Aperture macros list end*
%ADD10RoundRect,0.250000X0.600000X0.725000X-0.600000X0.725000X-0.600000X-0.725000X0.600000X-0.725000X0*%
%ADD11O,1.700000X1.950000*%
%ADD12C,7.000000*%
%ADD13RoundRect,0.250000X-0.750000X0.600000X-0.750000X-0.600000X0.750000X-0.600000X0.750000X0.600000X0*%
%ADD14O,2.000000X1.700000*%
%ADD15R,1.800000X1.800000*%
%ADD16C,1.800000*%
%ADD17R,1.700000X1.700000*%
%ADD18O,1.700000X1.700000*%
%ADD19C,3.250000*%
%ADD20R,1.400000X1.400000*%
%ADD21O,1.200000X1.500000*%
%ADD22C,1.500000*%
%ADD23C,2.500000*%
%ADD24C,0.001000*%
%ADD25C,1.000000*%
G04 APERTURE END LIST*
D10*
%TO.C,X1*%
X91050000Y-18075000D03*
D11*
X88550000Y-18075000D03*
X86050000Y-18075000D03*
X83550000Y-18075000D03*
%TD*%
D10*
%TO.C,X4*%
X70800000Y-10750000D03*
D11*
X68300000Y-10750000D03*
X65800000Y-10750000D03*
X63300000Y-10750000D03*
%TD*%
D12*
%TO.C,H1*%
X0Y0D03*
%TD*%
D13*
%TO.C,X5*%
X90175000Y-52550000D03*
D14*
X90175000Y-55050000D03*
%TD*%
D12*
%TO.C,H2*%
X90000000Y0D03*
%TD*%
D15*
%TO.C,D3*%
X79975000Y-550000D03*
D16*
X77435000Y-550000D03*
%TD*%
D10*
%TO.C,X3*%
X77250000Y-18050000D03*
D11*
X74750000Y-18050000D03*
X72250000Y-18050000D03*
X69750000Y-18050000D03*
%TD*%
D12*
%TO.C,H3*%
X0Y-70000000D03*
%TD*%
D10*
%TO.C,X2*%
X84700000Y-10775000D03*
D11*
X82200000Y-10775000D03*
X79700000Y-10775000D03*
X77200000Y-10775000D03*
%TD*%
D17*
%TO.C,J1*%
X72150000Y-800000D03*
D18*
X69610000Y-800000D03*
X67070000Y-800000D03*
%TD*%
D19*
%TO.C,X7*%
X69640000Y-74240000D03*
X82340000Y-74240000D03*
D20*
X79550000Y-71700000D03*
D21*
X78534000Y-69920000D03*
D22*
X77518000Y-71700000D03*
D21*
X76502000Y-69920000D03*
D22*
X75486000Y-71700000D03*
X74470000Y-69920000D03*
X73454000Y-71700000D03*
X72438000Y-69920000D03*
X82850000Y-65100000D03*
X80560000Y-65100000D03*
X71420000Y-65100000D03*
X69130000Y-65100000D03*
D23*
X84120000Y-70810000D03*
X67860000Y-70810000D03*
%TD*%
D12*
%TO.C,H4*%
X90000000Y-70000000D03*
%TD*%
D24*
%TO.C,X6*%
X53170000Y-74750000D03*
X61150000Y-74750000D03*
%TD*%
D25*
%TO.C,U1*%
X53614168Y-17470142D03*
X51074168Y-17470142D03*
X48534168Y-17470142D03*
X45994168Y-17470142D03*
X43454168Y-17470142D03*
X40914168Y-17470142D03*
X38374168Y-17470142D03*
X35834168Y-17470142D03*
X33294168Y-17470142D03*
X30754168Y-17470142D03*
X28214168Y-17470142D03*
X25674168Y-17470142D03*
X23134168Y-17470142D03*
X20594168Y-17470142D03*
X18054168Y-17470142D03*
X15514168Y-17470142D03*
X15514168Y-20010142D03*
X15514168Y-22550142D03*
X15514168Y-25090142D03*
X15514168Y-27630142D03*
X15514168Y-30170142D03*
X15514168Y-32710142D03*
X15514168Y-35250142D03*
X15514168Y-37790142D03*
X15514168Y-40330142D03*
X15514168Y-42870142D03*
X15514168Y-45410142D03*
X15514168Y-47950142D03*
X15514168Y-50490142D03*
X15514168Y-53030142D03*
X18054168Y-53030142D03*
X20594168Y-53030142D03*
X23134168Y-53030142D03*
X25674168Y-53030142D03*
X28214168Y-53030142D03*
X30754168Y-53030142D03*
X33294168Y-53030142D03*
X35834168Y-53030142D03*
X38374168Y-53030142D03*
X40914168Y-53030142D03*
X43454168Y-53030142D03*
X45994168Y-53030142D03*
X48534168Y-53030142D03*
X51074168Y-53030142D03*
X53614168Y-53030142D03*
X53614168Y-50490142D03*
X53614168Y-47950142D03*
X53614168Y-45410142D03*
X53614168Y-42870142D03*
X53614168Y-40330142D03*
X53614168Y-37790142D03*
X53614168Y-35250142D03*
X53614168Y-32710142D03*
X53614168Y-30170142D03*
X53614168Y-27630142D03*
X53614168Y-25090142D03*
X53614168Y-22550142D03*
X53614168Y-20010142D03*
%TD*%
D12*
%TO.C,H5*%
X45000000Y0D03*
%TD*%
M02*
