%TF.GenerationSoftware,KiCad,Pcbnew,6.0.11-2627ca5db0~126~ubuntu20.04.1*%
%TF.CreationDate,2023-02-16T00:02:20+06:00*%
%TF.ProjectId,Router_MCU,526f7574-6572-45f4-9d43-552e6b696361,rev?*%
%TF.SameCoordinates,PX6ef5c30PY494a350*%
%TF.FileFunction,Soldermask,Top*%
%TF.FilePolarity,Negative*%
%FSLAX46Y46*%
G04 Gerber Fmt 4.6, Leading zero omitted, Abs format (unit mm)*
G04 Created by KiCad (PCBNEW 6.0.11-2627ca5db0~126~ubuntu20.04.1) date 2023-02-16 00:02:20*
%MOMM*%
%LPD*%
G01*
G04 APERTURE LIST*
G04 Aperture macros list*
%AMRoundRect*
0 Rectangle with rounded corners*
0 $1 Rounding radius*
0 $2 $3 $4 $5 $6 $7 $8 $9 X,Y pos of 4 corners*
0 Add a 4 corners polygon primitive as box body*
4,1,4,$2,$3,$4,$5,$6,$7,$8,$9,$2,$3,0*
0 Add four circle primitives for the rounded corners*
1,1,$1+$1,$2,$3*
1,1,$1+$1,$4,$5*
1,1,$1+$1,$6,$7*
1,1,$1+$1,$8,$9*
0 Add four rect primitives between the rounded corners*
20,1,$1+$1,$2,$3,$4,$5,0*
20,1,$1+$1,$4,$5,$6,$7,0*
20,1,$1+$1,$6,$7,$8,$9,0*
20,1,$1+$1,$8,$9,$2,$3,0*%
G04 Aperture macros list end*
%ADD10RoundRect,0.225000X0.250000X-0.225000X0.250000X0.225000X-0.250000X0.225000X-0.250000X-0.225000X0*%
%ADD11RoundRect,0.200000X0.200000X0.275000X-0.200000X0.275000X-0.200000X-0.275000X0.200000X-0.275000X0*%
%ADD12RoundRect,0.200000X0.275000X-0.200000X0.275000X0.200000X-0.275000X0.200000X-0.275000X-0.200000X0*%
%ADD13RoundRect,0.200000X-0.275000X0.200000X-0.275000X-0.200000X0.275000X-0.200000X0.275000X0.200000X0*%
%ADD14RoundRect,0.200000X-0.200000X-0.275000X0.200000X-0.275000X0.200000X0.275000X-0.200000X0.275000X0*%
%ADD15RoundRect,0.250000X0.600000X0.725000X-0.600000X0.725000X-0.600000X-0.725000X0.600000X-0.725000X0*%
%ADD16O,1.700000X1.950000*%
%ADD17RoundRect,0.250000X0.650000X-0.325000X0.650000X0.325000X-0.650000X0.325000X-0.650000X-0.325000X0*%
%ADD18C,7.000000*%
%ADD19R,4.100000X4.100000*%
%ADD20RoundRect,0.225000X-0.225000X-0.250000X0.225000X-0.250000X0.225000X0.250000X-0.225000X0.250000X0*%
%ADD21RoundRect,0.250000X-0.250000X-0.475000X0.250000X-0.475000X0.250000X0.475000X-0.250000X0.475000X0*%
%ADD22RoundRect,0.250000X-0.325000X-0.650000X0.325000X-0.650000X0.325000X0.650000X-0.325000X0.650000X0*%
%ADD23R,0.600000X1.550000*%
%ADD24R,3.100000X2.600000*%
%ADD25RoundRect,0.062500X0.350000X0.062500X-0.350000X0.062500X-0.350000X-0.062500X0.350000X-0.062500X0*%
%ADD26RoundRect,0.062500X0.062500X0.350000X-0.062500X0.350000X-0.062500X-0.350000X0.062500X-0.350000X0*%
%ADD27R,2.600000X2.600000*%
%ADD28R,1.800000X2.500000*%
%ADD29RoundRect,0.250000X-0.750000X0.600000X-0.750000X-0.600000X0.750000X-0.600000X0.750000X0.600000X0*%
%ADD30O,2.000000X1.700000*%
%ADD31R,1.800000X1.800000*%
%ADD32C,1.800000*%
%ADD33RoundRect,0.225000X0.225000X0.250000X-0.225000X0.250000X-0.225000X-0.250000X0.225000X-0.250000X0*%
%ADD34R,1.100000X1.300000*%
%ADD35RoundRect,0.250000X-0.262500X-0.450000X0.262500X-0.450000X0.262500X0.450000X-0.262500X0.450000X0*%
%ADD36RoundRect,0.250000X1.950000X1.000000X-1.950000X1.000000X-1.950000X-1.000000X1.950000X-1.000000X0*%
%ADD37R,1.500000X1.300000*%
%ADD38R,1.700000X1.700000*%
%ADD39O,1.700000X1.700000*%
%ADD40C,3.250000*%
%ADD41R,1.400000X1.400000*%
%ADD42O,1.200000X1.500000*%
%ADD43C,1.500000*%
%ADD44C,2.500000*%
%ADD45R,0.760000X1.700000*%
%ADD46RoundRect,0.225000X-0.250000X0.225000X-0.250000X-0.225000X0.250000X-0.225000X0.250000X0.225000X0*%
%ADD47C,0.001000*%
%ADD48R,0.700000X1.600000*%
%ADD49R,1.200000X1.400000*%
%ADD50R,1.200000X2.200000*%
%ADD51R,1.600000X1.400000*%
%ADD52RoundRect,0.150000X-0.150000X0.450000X-0.150000X-0.450000X0.150000X-0.450000X0.150000X0.450000X0*%
%ADD53RoundRect,0.150000X-0.450000X-0.150000X0.450000X-0.150000X0.450000X0.150000X-0.450000X0.150000X0*%
%ADD54RoundRect,0.150000X0.450000X0.150000X-0.450000X0.150000X-0.450000X-0.150000X0.450000X-0.150000X0*%
%ADD55C,1.000000*%
G04 APERTURE END LIST*
D10*
%TO.C,C20*%
X66100000Y-43937500D03*
X66100000Y-42387500D03*
%TD*%
D11*
%TO.C,R2*%
X79075000Y-3800000D03*
X77425000Y-3800000D03*
%TD*%
D10*
%TO.C,C15*%
X21250000Y-11025000D03*
X21250000Y-9475000D03*
%TD*%
D12*
%TO.C,R11*%
X71500000Y-35525000D03*
X71500000Y-33875000D03*
%TD*%
D13*
%TO.C,R15*%
X18050000Y-9425000D03*
X18050000Y-11075000D03*
%TD*%
D14*
%TO.C,R17*%
X79875000Y-41962500D03*
X81525000Y-41962500D03*
%TD*%
D15*
%TO.C,X1*%
X91050000Y-18075000D03*
D16*
X88550000Y-18075000D03*
X86050000Y-18075000D03*
X83550000Y-18075000D03*
%TD*%
D17*
%TO.C,C19*%
X36500000Y-25000D03*
X36500000Y2925000D03*
%TD*%
D15*
%TO.C,X4*%
X70800000Y-10750000D03*
D16*
X68300000Y-10750000D03*
X65800000Y-10750000D03*
X63300000Y-10750000D03*
%TD*%
D18*
%TO.C,H1*%
X0Y0D03*
%TD*%
D19*
%TO.C,L1*%
X28400000Y-6350000D03*
X37900000Y-6350000D03*
%TD*%
D20*
%TO.C,C6*%
X81025000Y-43562500D03*
X82575000Y-43562500D03*
%TD*%
D14*
%TO.C,R16*%
X73025000Y-43562500D03*
X74675000Y-43562500D03*
%TD*%
D21*
%TO.C,C1*%
X55100000Y-10150000D03*
X57000000Y-10150000D03*
%TD*%
D22*
%TO.C,C7*%
X19825000Y2750000D03*
X22775000Y2750000D03*
%TD*%
D17*
%TO.C,C10*%
X76200000Y-62225000D03*
X76200000Y-59275000D03*
%TD*%
D23*
%TO.C,U2*%
X21105000Y-2100000D03*
X19835000Y-2100000D03*
X18565000Y-2100000D03*
X17295000Y-2100000D03*
X17295000Y-7500000D03*
X18565000Y-7500000D03*
X19835000Y-7500000D03*
X21105000Y-7500000D03*
D24*
X19200000Y-4800000D03*
%TD*%
D25*
%TO.C,U3*%
X78287500Y-40462500D03*
X78287500Y-39962500D03*
X78287500Y-39462500D03*
X78287500Y-38962500D03*
X78287500Y-38462500D03*
X78287500Y-37962500D03*
D26*
X77600000Y-37275000D03*
X77100000Y-37275000D03*
X76600000Y-37275000D03*
X76100000Y-37275000D03*
X75600000Y-37275000D03*
X75100000Y-37275000D03*
D25*
X74412500Y-37962500D03*
X74412500Y-38462500D03*
X74412500Y-38962500D03*
X74412500Y-39462500D03*
X74412500Y-39962500D03*
X74412500Y-40462500D03*
D26*
X75100000Y-41150000D03*
X75600000Y-41150000D03*
X76100000Y-41150000D03*
X76600000Y-41150000D03*
X77100000Y-41150000D03*
X77600000Y-41150000D03*
D27*
X76350000Y-39212500D03*
%TD*%
D28*
%TO.C,D4*%
X24000000Y-8250000D03*
X24000000Y-4250000D03*
%TD*%
D14*
%TO.C,R9*%
X68625000Y-37800000D03*
X70275000Y-37800000D03*
%TD*%
D13*
%TO.C,R6*%
X80700000Y-31725000D03*
X80700000Y-33375000D03*
%TD*%
D29*
%TO.C,X5*%
X90175000Y-52550000D03*
D30*
X90175000Y-55050000D03*
%TD*%
D17*
%TO.C,C18*%
X39050000Y25000D03*
X39050000Y2975000D03*
%TD*%
D11*
%TO.C,R25*%
X51475000Y-61600000D03*
X49825000Y-61600000D03*
%TD*%
D20*
%TO.C,C2*%
X55075000Y-12050000D03*
X56625000Y-12050000D03*
%TD*%
D18*
%TO.C,H2*%
X90000000Y0D03*
%TD*%
D12*
%TO.C,R24*%
X85250000Y-46775000D03*
X85250000Y-45125000D03*
%TD*%
D31*
%TO.C,D3*%
X79975000Y-550000D03*
D32*
X77435000Y-550000D03*
%TD*%
D10*
%TO.C,C9*%
X77300000Y-33825000D03*
X77300000Y-32275000D03*
%TD*%
%TO.C,C12*%
X19650000Y-11025000D03*
X19650000Y-9475000D03*
%TD*%
D13*
%TO.C,R7*%
X75550000Y-33125000D03*
X75550000Y-34775000D03*
%TD*%
D15*
%TO.C,X3*%
X77250000Y-18050000D03*
D16*
X74750000Y-18050000D03*
X72250000Y-18050000D03*
X69750000Y-18050000D03*
%TD*%
D33*
%TO.C,C8*%
X57025000Y-61600000D03*
X55475000Y-61600000D03*
%TD*%
D34*
%TO.C,Y1*%
X84925000Y-36950000D03*
X84925000Y-39050000D03*
X86575000Y-39050000D03*
X86575000Y-36950000D03*
%TD*%
D13*
%TO.C,R10*%
X71850000Y-36925000D03*
X71850000Y-38575000D03*
%TD*%
D18*
%TO.C,H3*%
X0Y-70000000D03*
%TD*%
D17*
%TO.C,C21*%
X34000000Y0D03*
X34000000Y2950000D03*
%TD*%
D11*
%TO.C,R22*%
X79525000Y-43562500D03*
X77875000Y-43562500D03*
%TD*%
D12*
%TO.C,R19*%
X14850000Y-11075000D03*
X14850000Y-9425000D03*
%TD*%
D11*
%TO.C,R4*%
X64375000Y-1500000D03*
X62725000Y-1500000D03*
%TD*%
D13*
%TO.C,R5*%
X79050000Y-31175000D03*
X79050000Y-32825000D03*
%TD*%
D21*
%TO.C,C11*%
X79650000Y-35162500D03*
X81550000Y-35162500D03*
%TD*%
D20*
%TO.C,C17*%
X80325000Y-40400000D03*
X81875000Y-40400000D03*
%TD*%
%TO.C,C13*%
X80025000Y-37012500D03*
X81575000Y-37012500D03*
%TD*%
D35*
%TO.C,FB1*%
X69287500Y-43712500D03*
X71112500Y-43712500D03*
%TD*%
D14*
%TO.C,R1*%
X24375000Y-11000000D03*
X26025000Y-11000000D03*
%TD*%
D36*
%TO.C,C23*%
X8432500Y-10400000D03*
X32500Y-10400000D03*
%TD*%
D11*
%TO.C,R18*%
X74275000Y-45162500D03*
X72625000Y-45162500D03*
%TD*%
D15*
%TO.C,X2*%
X84700000Y-10775000D03*
D16*
X82200000Y-10775000D03*
X79700000Y-10775000D03*
X77200000Y-10775000D03*
%TD*%
D12*
%TO.C,R20*%
X15550000Y-7875000D03*
X15550000Y-6225000D03*
%TD*%
D37*
%TO.C,D1*%
X38700000Y-72150000D03*
X38700000Y-77250000D03*
X47600000Y-77250000D03*
X47600000Y-72150000D03*
%TD*%
D38*
%TO.C,J1*%
X72150000Y-800000D03*
D39*
X69610000Y-800000D03*
X67070000Y-800000D03*
%TD*%
D12*
%TO.C,R23*%
X83700000Y-46775000D03*
X83700000Y-45125000D03*
%TD*%
D13*
%TO.C,R13*%
X79450000Y-58275000D03*
X79450000Y-59925000D03*
%TD*%
D40*
%TO.C,X7*%
X69640000Y-74240000D03*
X82340000Y-74240000D03*
D41*
X79550000Y-71700000D03*
D42*
X78534000Y-69920000D03*
D43*
X77518000Y-71700000D03*
D42*
X76502000Y-69920000D03*
D43*
X75486000Y-71700000D03*
X74470000Y-69920000D03*
X73454000Y-71700000D03*
X72438000Y-69920000D03*
X82850000Y-65100000D03*
X80560000Y-65100000D03*
X71420000Y-65100000D03*
X69130000Y-65100000D03*
D44*
X84120000Y-70810000D03*
X67860000Y-70810000D03*
%TD*%
D18*
%TO.C,H4*%
X90000000Y-70000000D03*
%TD*%
D22*
%TO.C,C5*%
X19825000Y300000D03*
X22775000Y300000D03*
%TD*%
D10*
%TO.C,C14*%
X16450000Y-11025000D03*
X16450000Y-9475000D03*
%TD*%
D13*
%TO.C,R12*%
X15600000Y-1725000D03*
X15600000Y-3375000D03*
%TD*%
D11*
%TO.C,R3*%
X64375000Y150000D03*
X62725000Y150000D03*
%TD*%
D20*
%TO.C,C4*%
X85225000Y-40900000D03*
X86775000Y-40900000D03*
%TD*%
D13*
%TO.C,R14*%
X73050000Y-58275000D03*
X73050000Y-59925000D03*
%TD*%
D10*
%TO.C,C22*%
X67650000Y-43937500D03*
X67650000Y-42387500D03*
%TD*%
D45*
%TO.C,T1*%
X80695000Y-47400000D03*
X79425000Y-47400000D03*
X78155000Y-47400000D03*
X76885000Y-47400000D03*
X75615000Y-47400000D03*
X74345000Y-47400000D03*
X73075000Y-47400000D03*
X71805000Y-47400000D03*
X71805000Y-56200000D03*
X73075000Y-56200000D03*
X74345000Y-56200000D03*
X75615000Y-56200000D03*
X76885000Y-56200000D03*
X78155000Y-56200000D03*
X79425000Y-56200000D03*
X80695000Y-56200000D03*
%TD*%
D46*
%TO.C,C3*%
X83150000Y-35437500D03*
X83150000Y-36987500D03*
%TD*%
D47*
%TO.C,X6*%
X53170000Y-74750000D03*
X61150000Y-74750000D03*
D48*
X60300000Y-64250000D03*
X59200000Y-64250000D03*
X58100000Y-64250000D03*
X57000000Y-64250000D03*
X55900000Y-64250000D03*
X54800000Y-64250000D03*
X53700000Y-64250000D03*
X52600000Y-64250000D03*
X51500000Y-64250000D03*
D49*
X50350000Y-64750000D03*
D50*
X50350000Y-74350000D03*
X65850000Y-74350000D03*
D51*
X64950000Y-64750000D03*
%TD*%
D13*
%TO.C,R8*%
X73950000Y-33125000D03*
X73950000Y-34775000D03*
%TD*%
D52*
%TO.C,U1*%
X55050000Y-13750000D03*
X54050000Y-13750000D03*
X53050000Y-13750000D03*
X52050000Y-13750000D03*
X51050000Y-13750000D03*
X50050000Y-13750000D03*
X49050000Y-13750000D03*
X48050000Y-13750000D03*
X47050000Y-13750000D03*
X46050000Y-13750000D03*
X45050000Y-13750000D03*
X44050000Y-13750000D03*
X43050000Y-13750000D03*
X42050000Y-13750000D03*
X41050000Y-13750000D03*
X40050000Y-13750000D03*
X39050000Y-13750000D03*
X38050000Y-13750000D03*
X37050000Y-13750000D03*
X36050000Y-13750000D03*
X35050000Y-13750000D03*
X34050000Y-13750000D03*
X33050000Y-13750000D03*
X32050000Y-13750000D03*
X31050000Y-13750000D03*
X30050000Y-13750000D03*
X29050000Y-13750000D03*
X28050000Y-13750000D03*
X27050000Y-13750000D03*
X26050000Y-13750000D03*
X25050000Y-13750000D03*
X24050000Y-13750000D03*
X23050000Y-13750000D03*
X22050000Y-13750000D03*
X21050000Y-13750000D03*
X20050000Y-13750000D03*
X19050000Y-13750000D03*
X18050000Y-13750000D03*
X17050000Y-13750000D03*
X16050000Y-13750000D03*
X15050000Y-13750000D03*
X14050000Y-13750000D03*
D53*
X12050000Y-15750000D03*
X12050000Y-16750000D03*
X12050000Y-17750000D03*
X12050000Y-18750000D03*
X12050000Y-19750000D03*
X12050000Y-20750000D03*
X12050000Y-21750000D03*
X12050000Y-22750000D03*
X12050000Y-23750000D03*
X12050000Y-24750000D03*
X12050000Y-25750000D03*
X12050000Y-26750000D03*
X12050000Y-27750000D03*
X12050000Y-28750000D03*
X12050000Y-29750000D03*
X12050000Y-30750000D03*
X12050000Y-31750000D03*
X12050000Y-32750000D03*
X12050000Y-33750000D03*
X12050000Y-34750000D03*
X12050000Y-35750000D03*
X12050000Y-36750000D03*
X12050000Y-37750000D03*
X12050000Y-38750000D03*
X12050000Y-39750000D03*
X12050000Y-40750000D03*
X12050000Y-41750000D03*
X12050000Y-42750000D03*
X12050000Y-43750000D03*
X12050000Y-44750000D03*
X12050000Y-45750000D03*
X12050000Y-46750000D03*
X12050000Y-47750000D03*
X12050000Y-48750000D03*
X12050000Y-49750000D03*
X12050000Y-50750000D03*
X12050000Y-51750000D03*
X12050000Y-52750000D03*
X12050000Y-53750000D03*
X12050000Y-54750000D03*
D52*
X14050000Y-56750000D03*
X15050000Y-56750000D03*
X16050000Y-56750000D03*
X17050000Y-56750000D03*
X18050000Y-56750000D03*
X19050000Y-56750000D03*
X20050000Y-56750000D03*
X21050000Y-56750000D03*
X22050000Y-56750000D03*
X23050000Y-56750000D03*
X24050000Y-56750000D03*
X25050000Y-56750000D03*
X26050000Y-56750000D03*
X27050000Y-56750000D03*
X28050000Y-56750000D03*
X29050000Y-56750000D03*
X30050000Y-56750000D03*
X31050000Y-56750000D03*
X32050000Y-56750000D03*
X33050000Y-56750000D03*
X34050000Y-56750000D03*
X35050000Y-56750000D03*
X36050000Y-56750000D03*
X37050000Y-56750000D03*
X38050000Y-56750000D03*
X39050000Y-56750000D03*
X40050000Y-56750000D03*
X41050000Y-56750000D03*
X42050000Y-56750000D03*
X43050000Y-56750000D03*
X44050000Y-56750000D03*
X45050000Y-56750000D03*
X46050000Y-56750000D03*
X47050000Y-56750000D03*
X48050000Y-56750000D03*
X49050000Y-56750000D03*
X50050000Y-56750000D03*
X51050000Y-56750000D03*
X52050000Y-56750000D03*
X53050000Y-56750000D03*
X54050000Y-56750000D03*
X55050000Y-56750000D03*
D54*
X57100000Y-54750000D03*
X57100000Y-53750000D03*
X57100000Y-52750000D03*
X57100000Y-51750000D03*
X57100000Y-50750000D03*
X57100000Y-49750000D03*
X57100000Y-48750000D03*
X57100000Y-47750000D03*
X57100000Y-46750000D03*
X57100000Y-45750000D03*
X57100000Y-44750000D03*
X57100000Y-43750000D03*
X57100000Y-42750000D03*
X57100000Y-41750000D03*
X57100000Y-40750000D03*
X57100000Y-39750000D03*
X57100000Y-38750000D03*
X57100000Y-37750000D03*
X57100000Y-36750000D03*
X57100000Y-35750000D03*
X57100000Y-34750000D03*
X57100000Y-33750000D03*
X57100000Y-32750000D03*
X57100000Y-31750000D03*
X57100000Y-30750000D03*
X57100000Y-29750000D03*
X57100000Y-28750000D03*
X57100000Y-27750000D03*
X57100000Y-26750000D03*
X57100000Y-25750000D03*
X57100000Y-24750000D03*
X57100000Y-23750000D03*
X57100000Y-22750000D03*
X57100000Y-21750000D03*
X57100000Y-20750000D03*
X57100000Y-19750000D03*
X57100000Y-18750000D03*
X57100000Y-17750000D03*
X57100000Y-16750000D03*
X57100000Y-15750000D03*
D55*
X53614168Y-17470142D03*
X51074168Y-17470142D03*
X48534168Y-17470142D03*
X45994168Y-17470142D03*
X43454168Y-17470142D03*
X40914168Y-17470142D03*
X38374168Y-17470142D03*
X35834168Y-17470142D03*
X33294168Y-17470142D03*
X30754168Y-17470142D03*
X28214168Y-17470142D03*
X25674168Y-17470142D03*
X23134168Y-17470142D03*
X20594168Y-17470142D03*
X18054168Y-17470142D03*
X15514168Y-17470142D03*
X15514168Y-20010142D03*
X15514168Y-22550142D03*
X15514168Y-25090142D03*
X15514168Y-27630142D03*
X15514168Y-30170142D03*
X15514168Y-32710142D03*
X15514168Y-35250142D03*
X15514168Y-37790142D03*
X15514168Y-40330142D03*
X15514168Y-42870142D03*
X15514168Y-45410142D03*
X15514168Y-47950142D03*
X15514168Y-50490142D03*
X15514168Y-53030142D03*
X18054168Y-53030142D03*
X20594168Y-53030142D03*
X23134168Y-53030142D03*
X25674168Y-53030142D03*
X28214168Y-53030142D03*
X30754168Y-53030142D03*
X33294168Y-53030142D03*
X35834168Y-53030142D03*
X38374168Y-53030142D03*
X40914168Y-53030142D03*
X43454168Y-53030142D03*
X45994168Y-53030142D03*
X48534168Y-53030142D03*
X51074168Y-53030142D03*
X53614168Y-53030142D03*
X53614168Y-50490142D03*
X53614168Y-47950142D03*
X53614168Y-45410142D03*
X53614168Y-42870142D03*
X53614168Y-40330142D03*
X53614168Y-37790142D03*
X53614168Y-35250142D03*
X53614168Y-32710142D03*
X53614168Y-30170142D03*
X53614168Y-27630142D03*
X53614168Y-25090142D03*
X53614168Y-22550142D03*
X53614168Y-20010142D03*
%TD*%
D18*
%TO.C,H5*%
X45000000Y0D03*
%TD*%
D33*
%TO.C,C16*%
X72825000Y-41900000D03*
X71275000Y-41900000D03*
%TD*%
D14*
%TO.C,R21*%
X78225000Y-45142500D03*
X79875000Y-45142500D03*
%TD*%
D28*
%TO.C,D2*%
X35650000Y-72700000D03*
X35650000Y-76700000D03*
%TD*%
M02*
