M48
; DRILL file {KiCad 6.0.11-2627ca5db0~126~ubuntu20.04.1} date Чт 16 мар 2023 14:20:51
; FORMAT={-:-/ absolute / metric / decimal}
; #@! TF.CreationDate,2023-03-16T14:20:51+06:00
; #@! TF.GenerationSoftware,Kicad,Pcbnew,6.0.11-2627ca5db0~126~ubuntu20.04.1
; #@! TF.FileFunction,Plated,1,2,PTH
FMAT,2
METRIC
; #@! TA.AperFunction,Plated,PTH,ViaDrill
T1C0.300
; #@! TA.AperFunction,Plated,PTH,ComponentDrill
T2C0.300
; #@! TA.AperFunction,Plated,PTH,ComponentDrill
T3C0.600
; #@! TA.AperFunction,Plated,PTH,ComponentDrill
T4C0.700
; #@! TA.AperFunction,Plated,PTH,ComponentDrill
T5C0.800
; #@! TA.AperFunction,Plated,PTH,ComponentDrill
T6C0.900
; #@! TA.AperFunction,Plated,PTH,ComponentDrill
T7C0.950
; #@! TA.AperFunction,Plated,PTH,ComponentDrill
T8C1.000
; #@! TA.AperFunction,Plated,PTH,ComponentDrill
T9C1.570
; #@! TA.AperFunction,Plated,PTH,ComponentDrill
T10C3.500
%
G90
G05
T1
X-2.0Y-18.5
X-2.0Y-21.5
X-2.0Y-24.5
X-2.0Y-27.5
X-2.0Y-30.5
X-2.0Y-33.5
X-2.0Y-36.5
X-2.0Y-39.5
X-2.0Y-42.5
X-2.0Y-45.5
X-2.0Y-48.5
X-2.0Y-51.5
X-2.0Y-54.5
X-2.0Y-57.5
X-2.0Y-60.5
X1.0Y-18.5
X1.0Y-21.5
X1.0Y-24.5
X1.0Y-27.5
X1.0Y-30.5
X1.0Y-33.5
X1.0Y-36.5
X1.0Y-39.5
X1.0Y-42.5
X1.0Y-45.5
X1.0Y-48.5
X1.0Y-51.5
X1.0Y-54.5
X1.0Y-57.5
X1.0Y-60.5
X6.5Y-73.5
X6.5Y-77.0
X8.5Y-18.5
X8.5Y-22.0
X8.5Y-25.5
X8.5Y-28.5
X8.5Y-32.0
X8.5Y-35.5
X8.5Y-39.0
X8.5Y-42.5
X8.5Y-45.5
X8.5Y-49.0
X8.5Y-52.5
X8.5Y-56.5
X10.55Y-45.8
X10.55Y-47.8
X10.6Y-38.75
X11.0Y-73.5
X11.0Y-77.0
X11.5Y-60.5
X13.5Y-11.1
X14.05Y-12.3
X15.0Y-60.5
X15.0Y-63.5
X15.05Y-58.15
X15.5Y-4.75
X15.5Y-77.0
X17.05Y-12.3
X17.05Y-58.15
X18.5Y-60.5
X18.5Y-63.5
X18.5Y-66.5
X18.5Y-69.5
X19.0Y-77.0
X20.05Y-12.3
X20.05Y-58.15
X21.5Y-60.5
X22.0Y-63.5
X22.0Y-66.5
X22.0Y-69.5
X22.5Y-77.0
X22.6Y-1.9
X22.6Y-11.05
X23.05Y-12.3
X24.05Y-58.15
X24.25Y3.25
X24.25Y2.15
X24.25Y1.0
X24.4Y-12.3
X25.0Y-66.5
X25.0Y-69.5
X25.15Y3.25
X25.15Y2.15
X25.15Y1.0
X26.05Y-12.3
X26.5Y-77.0
X27.05Y-58.15
X28.0Y3.1
X28.0Y1.5
X28.5Y-68.0
X29.05Y-12.4
X29.05Y-58.85
X30.0Y-77.0
X31.0Y3.25
X31.0Y2.25
X31.5Y-68.0
X32.0Y3.25
X32.0Y2.25
X32.05Y-12.4
X32.2Y-0.05
X32.5Y-61.35
X33.0Y-77.0
X33.05Y-58.1
X34.05Y-58.1
X34.25Y-61.6
X34.5Y-68.0
X35.05Y-12.4
X38.0Y-68.0
X38.05Y-12.4
X38.05Y-58.1
X41.05Y-12.4
X41.05Y-58.1
X42.25Y-10.15
X43.5Y-73.0
X43.5Y-76.5
X44.05Y-12.35
X44.05Y-58.1
X46.0Y-10.15
X46.5Y-67.0
X47.05Y-58.1
X48.05Y-12.35
X48.05Y-63.05
X50.05Y-58.1
X50.1Y-10.75
X50.1Y-11.55
X50.1Y-12.35
X50.95Y-10.75
X50.95Y-11.55
X50.95Y-12.35
X53.05Y-58.1
X54.6Y-60.15
X55.0Y-74.5
X55.5Y-60.15
X56.5Y-2.5
X56.5Y-4.5
X56.7Y-60.4
X57.1Y-59.7
X57.5Y-60.4
X57.9Y-11.7
X57.9Y-12.55
X58.5Y-2.5
X58.5Y-4.5
X58.5Y-74.5
X58.65Y-29.75
X58.65Y-32.75
X58.65Y-35.75
X58.7Y-11.7
X58.7Y-12.55
X58.7Y-26.75
X58.7Y-38.75
X58.7Y-41.75
X58.7Y-44.8
X58.7Y-47.75
X58.7Y-50.75
X59.4Y-17.05
X60.0Y-56.5
X60.1Y-18.075
X60.775Y-26.25
X61.3Y0.15
X61.35Y-1.5
X61.45Y-17.95
X61.5Y-40.5
X61.5Y-43.5
X61.5Y-49.0
X61.5Y-51.5
X61.5Y-54.0
X62.2Y-25.45
X62.5Y-14.5
X62.5Y-16.5
X62.95Y-18.95
X63.0Y-5.5
X63.5Y-74.5
X63.85Y-40.05
X63.9Y-20.0
X64.0Y-49.0
X64.0Y-51.5
X64.7Y-39.5
X64.75Y-42.0
X64.75Y-42.85
X64.85Y-23.075
X65.0Y-14.5
X65.0Y-16.5
X65.6Y-21.25
X65.6Y-38.95
X66.0Y-5.5
X66.0Y-58.5
X66.0Y-61.0
X66.35Y-23.0
X66.5Y-38.4
X66.5Y-49.0
X67.2Y-24.2
X67.2Y-45.2
X67.2Y-46.0
X67.3Y-37.8
X68.0Y-45.2
X68.0Y-46.0
X68.5Y-58.5
X68.5Y-61.0
X69.0Y-5.5
X69.0Y-42.05
X69.95Y-35.2
X70.35Y-36.35
X71.0Y-22.5
X72.0Y-5.5
X72.55Y-32.65
X73.05Y-61.15
X73.95Y-31.774
X74.775Y-31.025
X75.5Y-22.0
X75.7Y-63.7
X75.75Y-57.95
X75.85Y-38.75
X75.85Y-39.65
X76.0Y-78.0
X76.15Y-3.8
X76.6Y-35.75
X76.6Y-57.95
X76.65Y-63.7
X76.85Y-38.75
X76.85Y-39.65
X77.0Y-5.5
X77.175Y-35.175
X77.3Y-30.95
X78.0Y-27.5
X79.0Y-78.0
X79.05Y-30.0
X79.45Y-61.15
X79.5Y-23.5
X80.0Y-5.5
X80.7Y-30.55
X81.0Y-27.5
X82.0Y-23.5
X82.0Y-78.0
X82.85Y-34.1
X82.9Y-41.5
X82.9Y-42.35
X83.0Y-3.0
X83.0Y-5.5
X83.65Y-34.1
X84.0Y-27.5
X84.0Y-30.5
X84.9Y-48.2
X85.05Y-42.25
X85.85Y-42.25
X86.5Y-5.5
X86.5Y-48.15
X87.0Y-24.5
X87.0Y-27.5
X87.0Y-30.5
X87.0Y-33.0
X87.5Y-60.5
X87.5Y-63.0
X88.15Y-36.5
X88.15Y-37.3
X89.0Y-7.5
X89.0Y-10.0
X89.0Y-12.5
X90.0Y-22.0
X90.0Y-24.5
X90.0Y-27.5
X90.0Y-30.5
X90.0Y-33.0
X90.0Y-36.0
X90.0Y-39.0
X90.0Y-42.0
X90.0Y-45.0
X90.0Y-48.0
X91.0Y-60.5
X91.0Y-63.0
X93.0Y-22.0
X93.0Y-24.5
X93.0Y-27.5
X93.0Y-30.5
X93.0Y-33.0
X93.0Y-36.0
X93.0Y-39.0
X93.0Y-42.0
X93.0Y-45.0
X93.0Y-48.0
T2
X17.4Y-4.2
X17.4Y-5.4
X18.5Y-4.2
X18.5Y-5.4
X19.8Y-4.2
X19.8Y-5.4
X21.0Y-4.2
X21.0Y-5.4
T3
X15.514Y-17.47
X15.514Y-20.01
X15.514Y-22.55
X15.514Y-25.09
X15.514Y-27.63
X15.514Y-30.17
X15.514Y-32.71
X15.514Y-35.25
X15.514Y-37.79
X15.514Y-40.33
X15.514Y-42.87
X15.514Y-45.41
X15.514Y-47.95
X15.514Y-50.49
X15.514Y-53.03
X18.054Y-17.47
X18.054Y-53.03
X20.594Y-17.47
X20.594Y-53.03
X23.134Y-17.47
X23.134Y-53.03
X25.674Y-17.47
X25.674Y-53.03
X28.214Y-17.47
X28.214Y-53.03
X30.754Y-17.47
X30.754Y-53.03
X33.294Y-17.47
X33.294Y-53.03
X35.834Y-17.47
X35.834Y-53.03
X38.374Y-17.47
X38.374Y-53.03
X40.914Y-17.47
X40.914Y-53.03
X43.454Y-17.47
X43.454Y-53.03
X45.994Y-17.47
X45.994Y-53.03
X48.534Y-17.47
X48.534Y-53.03
X51.074Y-17.47
X51.074Y-53.03
X53.614Y-17.47
X53.614Y-20.01
X53.614Y-22.55
X53.614Y-25.09
X53.614Y-27.63
X53.614Y-30.17
X53.614Y-32.71
X53.614Y-35.25
X53.614Y-37.79
X53.614Y-40.33
X53.614Y-42.87
X53.614Y-45.41
X53.614Y-47.95
X53.614Y-50.49
X53.614Y-53.03
T4
X72.438Y-69.92
X73.454Y-71.7
X74.47Y-69.92
X75.486Y-71.7
X76.502Y-69.92
X77.518Y-71.7
X78.534Y-69.92
X79.55Y-71.7
T5
X69.13Y-65.1
X71.42Y-65.1
X80.56Y-65.1
X82.85Y-65.1
T6
X77.435Y-0.55
X79.975Y-0.55
T7
X63.3Y-10.75
X65.8Y-10.75
X68.3Y-10.75
X69.75Y-18.05
X70.8Y-10.75
X72.25Y-18.05
X74.75Y-18.05
X77.2Y-10.775
X77.25Y-18.05
X79.7Y-10.775
X82.2Y-10.775
X83.55Y-18.075
X84.7Y-10.775
X86.05Y-18.075
X88.55Y-18.075
X91.05Y-18.075
T8
X67.07Y-0.8
X69.61Y-0.8
X72.15Y-0.8
X90.175Y-52.55
X90.175Y-55.05
T9
X67.86Y-70.81
X84.12Y-70.81
T10
X0.0Y0.0
X0.0Y-70.0
X45.0Y0.0
X90.0Y0.0
X90.0Y-70.0
T0
M30
